# xmcd
#
# Track frame offsets: 
#        150
#        16261
#        36780
#        57697
#        89757
#        112009
#        129712
#        148735
#        163664
#        185578
#        206927
#
# Disc length: 3192 seconds
#
# Revision: 0
# Processed by: cddbd v1.5.2PL0 Copyright (c) Steve Scherf et al.
# Submitted via: ExactAudioCopyFreeDBPlugin 1.0
#
DISCID=ad0c760b
DTITLE=Melba Moore - This Is It
DYEAR=1976
DGENRE=Soul
TTITLE0=This Is It
TTITLE1=Free
TTITLE2=One Less Morning
TTITLE3=Make Me Believe In You
TTITLE4=Lean On Me
TTITLE5=Stay Awhile
TTITLE6=Play Boy Scout
TTITLE7=Blood Red Roses
TTITLE8=Brand New
TTITLE9=This Is It (12" Version)
TTITLE10=Free (Extended Version)
EXTD=
EXTT0=
EXTT1=
EXTT2=
EXTT3=
EXTT4=
EXTT5=
EXTT6=
EXTT7=
EXTT8=
EXTT9=
EXTT10=
PLAYORDER=
